<svg width="width" height="height" viewBox="0 0 24 24" fill="none" xmlns="http://www.w3.org/2000/svg">
<path fill-rule="evenodd" clip-rule="evenodd" d="M12 0C16.006 0 19.267 3.141 19.479 7.092C22.049 7.555 24 9.798 24 12.5C24 15.537 21.537 18 18.5 18H15.024C15.084 17.38 15.232 16.671 15.521 16H18.5C20.43 16 22 14.43 22 12.5C22 9.531 19.312 8.734 17.567 8.78C17.891 4.797 15.453 2 12 2C8.641 2 6.266 4.562 6.433 8.78C4.479 8.667 2 9.703 2 12.5C2 14.43 3.57 16 5.5 16H7.844C7.569 16.717 7.384 17.404 7.266 18H5.5C2.463 18 0 15.537 0 12.5C0 9.798 1.951 7.555 4.521 7.092C4.733 3.141 7.994 0 12 0ZM16.042 20H13.042C13.042 20 12.229 13.906 16.854 12C9.042 12 9.042 20 9.042 20H6.042L11.021 24L16.042 20Z" fill="white"/>
</svg>
